<?xml version="1.0" encoding="utf-8"?>
<!-- Generator: Adobe Illustrator 28.0.0, SVG Export Plug-In . SVG Version: 6.00 Build 0)  -->
<svg version="1.1" id="Layer_1" xmlns="http://www.w3.org/2000/svg" xmlns:xlink="http://www.w3.org/1999/xlink" x="0px" y="0px"
	 viewBox="0 0 88 88" style="enable-background:new 0 0 88 88;" xml:space="preserve">
<style type="text/css">
	.st0{fill:none;stroke:#333333;stroke-width:8;stroke-linecap:round;stroke-miterlimit:10;}
	.st1{fill:none;stroke:#333333;stroke-width:8;stroke-miterlimit:10;}
	.st2{fill:none;stroke:#333333;stroke-width:8;stroke-linecap:round;stroke-linejoin:round;stroke-miterlimit:10;}
</style>
<path class="st0" d="M62.8,73.6c-5.2,3.2-11.4,5-18,5c-7.3,0-14-2.2-19.6-6.1"/>
<path class="st0" d="M73.6,98.9c-0.2,0.7-0.5,1.5-0.8,2.2"/>
<path class="st0" d="M79.2,47.5c-0.2,2.4-0.7,4.7-1.4,6.9"/>
<path class="st0" d="M74.3,25.9c3.3,5.3,5.1,11.5,5.1,18.1c0,1.2-0.1,2.4-0.2,3.5"/>
<path class="st0" d="M15.3,25.9c6.1-9.9,17-16.5,29.5-16.5c12.5,0,23.4,6.6,29.5,16.5"/>
<path class="st0" d="M10.4,47.5c-0.1-1.2-0.2-2.3-0.2-3.5c0-6.7,1.9-12.9,5.1-18.1"/>
<path class="st0" d="M11.9,54.6c-0.7-2.3-1.2-4.6-1.5-7.1"/>
<path class="st0" d="M8.4,101c-0.3-0.7-0.5-1.3-0.7-2"/>
<g>
	<path class="st0" d="M69.9,117.2c-0.4,1-0.8,1.9-1.2,2.8"/>
	<path class="st0" d="M6.6,119.9c-0.5-0.9-0.9-1.8-1.2-2.8"/>
	<g>
		<path class="st0" d="M61.2,129.9c-1.7,1.6-3.5,3-5.5,4.2"/>
		<path class="st0" d="M68.6,119.9c-1.9,3.8-4.4,7.1-7.5,10"/>
		<path class="st0" d="M18,133.1c-2-1.4-3.8-2.9-5.5-4.7"/>
		<path class="st0" d="M12.6,128.4c-2.4-2.5-4.4-5.4-5.9-8.5"/>
	</g>
</g>
<circle class="st1" cx="44.8" cy="38.4" r="11.3"/>
<path class="st0" d="M25.2,72.2c0-7.6,6.2-12.8,13.9-12.8h9.8c7.6,0,13.9,6.2,13.9,13.9"/>
<rect x="78.3" y="-43.6" transform="matrix(6.123234e-17 -1 1 6.123234e-17 105.1626 53.2785)" class="st2" width="1.8" height="35.3"/>
<rect x="30.1" y="105.3" transform="matrix(0.4429 -0.8966 0.8966 0.4429 -73.1684 95.957)" class="st2" width="21.1" height="3.1"/>
</svg>
