<?xml version="1.0" encoding="utf-8"?>
<!-- Generator: Adobe Illustrator 28.0.0, SVG Export Plug-In . SVG Version: 6.00 Build 0)  -->
<svg version="1.1" id="Layer_1" xmlns="http://www.w3.org/2000/svg" xmlns:xlink="http://www.w3.org/1999/xlink" x="0px" y="0px"
	 viewBox="0 0 88 88" style="enable-background:new 0 0 88 88;" xml:space="preserve">
<style type="text/css">
	.st0{fill:none;stroke:#333333;stroke-width:8;stroke-linecap:round;stroke-miterlimit:10;}
	.st1{fill:none;stroke:#333333;stroke-width:8;stroke-miterlimit:10;}
</style>
<image style="overflow:visible;opacity:0.6;" width="1396" height="1394" xlink:href="6E2A7697.jpg"  transform="matrix(7.849380e-02 0 0 7.849380e-02 210.3967 -10.7102)">
</image>
<path class="st0" d="M205-50.3c-5.2,3.2-11.4,5-18,5c-7.3,0-14-2.2-19.6-6.1"/>
<path class="st0" d="M221.4-76.3c-0.2,2.4-0.7,4.7-1.4,6.9"/>
<path class="st0" d="M216.5-98c3.3,5.3,5.1,11.5,5.1,18.1c0,1.2-0.1,2.4-0.2,3.5"/>
<path class="st0" d="M157.5-98c6.1-9.9,17-16.5,29.5-16.5c12.5,0,23.4,6.6,29.5,16.5"/>
<path class="st0" d="M152.6-76.3c-0.1-1.2-0.2-2.3-0.2-3.5c0-6.7,1.9-12.9,5.1-18.1"/>
<path class="st0" d="M154.1-69.3c-0.7-2.3-1.2-4.6-1.5-7.1"/>
<circle class="st1" cx="187" cy="-85.5" r="11.3"/>
<path class="st0" d="M167.4-51.7c0-7.6,6.2-12.8,13.9-12.8h9.8c7.6,0,13.9,6.2,13.9,13.9"/>
<line class="st0" x1="14.9" y1="22.2" x2="72.9" y2="22.2"/>
<line class="st0" x1="14.9" y1="44" x2="72.9" y2="44"/>
<line class="st0" x1="14.9" y1="65.8" x2="72.9" y2="65.8"/>
</svg>
