<?xml version="1.0" encoding="utf-8"?>
<!-- Generator: Adobe Illustrator 26.2.1, SVG Export Plug-In . SVG Version: 6.00 Build 0)  -->
<svg version="1.1" id="Layer_1" xmlns="http://www.w3.org/2000/svg" xmlns:xlink="http://www.w3.org/1999/xlink" x="0px" y="0px"
	 viewBox="0 0 88 88" style="enable-background:new 0 0 88 88;" xml:space="preserve">
<style type="text/css">
	.st0{fill:none;stroke:#A9ACBA;stroke-width:12;stroke-linecap:round;stroke-miterlimit:10;}
	.st1{fill:none;stroke:#2759B2;stroke-width:12;stroke-linecap:round;stroke-miterlimit:10;}
	.st2{fill:#FFFFFF;}
	.st3{fill:#2759B2;stroke:#2759B2;stroke-width:12;stroke-linecap:round;stroke-miterlimit:10;}
	.st4{fill:#2759B2;}
</style>
<line class="st0" x1="59.8" y1="-43.4" x2="104.9" y2="-43.4"/>
<path class="st1" d="M23.4,17.1l-0.3,0.3c-15.2,15.4-15.2,40.1,0,55.4l0.3,0.3"/>
<path class="st1" d="M69.7,61.5c-2,4.2-4.7,8.2-8.2,11.8l0,0"/>
<path class="st1" d="M103.4-1L103.4-1c12.6,14.2,15.4,33.9,8.5,50.6"/>
<line class="st0" x1="130.8" y1="-24.7" x2="130.8" y2="39.4"/>
<line class="st1" x1="16.9" y1="45.3" x2="29.8" y2="45.3"/>
<path class="st2" d="M141.6-43.4h-2.4c-7,0-12.6-5.6-12.6-12.6v-6.9c0-7,5.6-12.6,12.6-12.6h2.4c7,0,12.6,5.6,12.6,12.6v6.9
	C154.2-49.1,148.5-43.4,141.6-43.4z"/>
<line class="st1" x1="113" y1="69.3" x2="113" y2="80.5"/>
<g>
	<path class="st1" d="M71.4,15.2l-5.6,2.1C53.1,22,45.5,36,47.8,50.4l0,0"/>
	<path class="st1" d="M72.9,14.7L71,24.4C68.6,37.3,59.5,47.7,47.8,51l0,0"/>
	<line class="st1" x1="49" y1="49.9" x2="43.7" y2="61.8"/>
	<path class="st3" d="M43.5,65.7l-2.3,2.7c-0.3,0.3-0.8,0-0.8-0.5l0.7-3.5c0-0.4,0.5-0.8,0.8-0.6l1.5,0.8
		C43.8,64.7,43.9,65.2,43.5,65.7z"/>
	<path class="st4" d="M41.5,72.9L41.5,72.9c-3.5,0-6.3-2.4-6.3-5.5v-1.2c0-3.1,2.8-5.5,6.3-5.5l0,0c3.5,0,6.3,2.4,6.3,5.5v1.2
		C47.9,70.3,45,72.9,41.5,72.9z"/>
</g>
</svg>
